<svg width="280" height="90" viewBox="0 0 280 90" fill="none" xmlns="http://www.w3.org/2000/svg">
<path d="M34.0803 25.1228C34.0803 25.5787 33.8524 25.8067 33.3965 25.8067H18.0783C17.8959 25.8067 17.8048 25.8979 17.8048 26.0802V40.9197C17.8048 41.1021 17.8959 41.1932 18.0783 41.1932H27.447C27.9029 41.1932 28.1308 41.4212 28.1308 41.8771V46.1853C28.1308 46.6412 27.9029 46.8692 27.447 46.8692H18.0783C17.8959 46.8692 17.8048 46.9603 17.8048 47.1427V67.3162C17.8048 67.7721 17.5768 68 17.1209 68H11.9237C11.4678 68 11.2398 67.7721 11.2398 67.3162V20.8146C11.2398 20.3587 11.4678 20.1308 11.9237 20.1308H33.3965C33.8524 20.1308 34.0803 20.3587 34.0803 20.8146V25.1228ZM42.2288 27.7215C40.9522 27.7215 39.9037 27.3112 39.0831 26.4905C38.2625 25.6699 37.8521 24.6214 37.8521 23.3448C37.8521 22.0683 38.2625 21.0198 39.0831 20.1992C39.9037 19.3785 40.9522 18.9682 42.2288 18.9682C43.5509 18.9682 44.5994 19.3785 45.3745 20.1992C46.1951 20.9742 46.6054 22.0227 46.6054 23.3448C46.6054 24.6214 46.1951 25.6699 45.3745 26.4905C44.5538 27.3112 43.5053 27.7215 42.2288 27.7215ZM39.6985 68C39.2426 68 39.0147 67.7721 39.0147 67.3162V33.8761C39.0147 33.4202 39.2426 33.1922 39.6985 33.1922H44.8958C45.3517 33.1922 45.5796 33.4202 45.5796 33.8761V67.3162C45.5796 67.7721 45.3517 68 44.8958 68H39.6985ZM66.9781 32.7135C69.8503 32.7135 72.0386 33.6937 73.543 35.6541C75.0931 37.5688 75.8681 40.3042 75.8681 43.8602V67.3162C75.8681 67.7721 75.6402 68 75.1843 68H69.987C69.5311 68 69.3032 67.7721 69.3032 67.3162V44.4073C69.3032 42.4925 68.8929 41.0109 68.0723 39.9623C67.2517 38.9137 66.1119 38.3895 64.653 38.3895C63.1486 38.3895 61.9632 38.9137 61.097 39.9623C60.2764 40.9653 59.8205 42.4014 59.7293 44.2705C59.7293 44.5441 59.7066 44.6808 59.661 44.6808V67.3162C59.661 67.7721 59.433 68 58.9771 68H53.7799C53.324 68 53.096 67.7721 53.096 67.3162V33.8761C53.096 33.4202 53.324 33.1922 53.7799 33.1922H58.9771C59.433 33.1922 59.661 33.4202 59.661 33.8761V35.7225C59.661 35.8136 59.7066 35.882 59.7977 35.9276C59.8889 35.9276 59.9801 35.8592 60.0713 35.7225C61.7125 33.7165 64.0148 32.7135 66.9781 32.7135ZM86.238 27.7215C84.9615 27.7215 83.9129 27.3112 83.0923 26.4905C82.2717 25.6699 81.8614 24.6214 81.8614 23.3448C81.8614 22.0683 82.2717 21.0198 83.0923 20.1992C83.9129 19.3785 84.9615 18.9682 86.238 18.9682C87.5601 18.9682 88.6087 19.3785 89.3837 20.1992C90.2043 20.9742 90.6146 22.0227 90.6146 23.3448C90.6146 24.6214 90.2043 25.6699 89.3837 26.4905C88.5631 27.3112 87.5145 27.7215 86.238 27.7215ZM83.7078 68C83.2519 68 83.0239 67.7721 83.0239 67.3162V33.8761C83.0239 33.4202 83.2519 33.1922 83.7078 33.1922H88.905C89.3609 33.1922 89.5888 33.4202 89.5888 33.8761V67.3162C89.5888 67.7721 89.3609 68 88.905 68H83.7078ZM112.834 33.8761C112.834 33.4202 113.062 33.1922 113.518 33.1922H118.715C119.171 33.1922 119.399 33.4202 119.399 33.8761V66.9742C119.399 71.7612 118.305 75.4539 116.116 78.0525C113.928 80.6967 110.167 82.0188 104.833 82.0188L102.986 81.9505C102.53 81.9049 102.303 81.6541 102.303 81.1982V76.8216C102.303 76.3657 102.553 76.1378 103.055 76.1378C106.793 76.2745 109.346 75.5223 110.714 73.8811C112.127 72.2854 112.834 69.778 112.834 66.3588V64.9227C112.834 64.8315 112.788 64.7859 112.697 64.7859C112.651 64.7403 112.583 64.7631 112.492 64.8543C110.942 66.9514 108.731 68 105.859 68C102.85 68 100.525 67.0426 98.8833 65.1278C97.2876 63.1675 96.4898 60.5233 96.4898 57.1952V43.5183C96.4898 40.1447 97.3104 37.5005 98.9517 35.5857C100.593 33.6253 102.895 32.6452 105.859 32.6452C108.822 32.6452 111.033 33.6937 112.492 35.7908C112.583 35.882 112.651 35.9048 112.697 35.8592C112.788 35.8136 112.834 35.7453 112.834 35.6541V33.8761ZM107.978 62.3241C109.437 62.3241 110.6 61.8226 111.466 60.8196C112.378 59.7711 112.834 58.4262 112.834 56.7849V43.9286C112.834 42.2874 112.378 40.9425 111.466 39.8939C110.6 38.8454 109.437 38.3211 107.978 38.3211C106.52 38.3211 105.334 38.8454 104.422 39.8939C103.511 40.9425 103.055 42.2874 103.055 43.9286V56.7849C103.055 58.4262 103.511 59.7711 104.422 60.8196C105.334 61.8226 106.52 62.3241 107.978 62.3241ZM137.237 32.6452C140.565 32.6452 143.278 33.6937 145.375 35.7908C147.517 37.888 148.589 40.6462 148.589 44.0654V67.3162C148.589 67.7721 148.361 68 147.905 68H142.708C142.252 68 142.024 67.7721 142.024 67.3162V65.8117C142.024 65.7205 141.978 65.6521 141.887 65.6065C141.841 65.5609 141.773 65.5837 141.682 65.6749C140.086 67.5897 137.738 68.5471 134.638 68.5471C132.04 68.5471 129.737 67.8176 127.731 66.3588C125.771 64.8543 124.791 62.2101 124.791 58.4262C124.791 54.4598 125.976 51.5649 128.347 49.7413C130.763 47.8721 133.909 46.9375 137.784 46.9375H141.75C141.933 46.9375 142.024 46.8464 142.024 46.664V44.6808C142.024 42.7661 141.568 41.2388 140.656 40.0991C139.744 38.9137 138.559 38.3211 137.1 38.3211C135.96 38.3211 135.003 38.7086 134.228 39.4836C133.453 40.2586 132.997 41.2616 132.86 42.4925C132.86 42.9484 132.632 43.1764 132.176 43.1764H126.637C126.181 43.1764 125.953 42.9484 125.953 42.4925C126.181 39.5748 127.344 37.2041 129.441 35.3805C131.538 33.5569 134.137 32.6452 137.237 32.6452ZM136.074 62.8028C137.67 62.8028 139.06 62.3013 140.246 61.2983C141.431 60.2953 142.024 58.8821 142.024 57.0585V52.4083C142.024 52.2259 141.933 52.1348 141.75 52.1348H137.579C135.755 52.1348 134.296 52.6363 133.202 53.6392C132.108 54.5966 131.561 56.0099 131.561 57.8791C131.561 59.5203 131.971 60.7512 132.792 61.5718C133.613 62.3925 134.707 62.8028 136.074 62.8028ZM184.341 32.7135C187.167 32.7135 189.333 33.7393 190.837 35.7908C192.387 37.7968 193.162 40.6234 193.162 44.2705V67.3162C193.162 67.7721 192.934 68 192.478 68H187.349C186.894 68 186.666 67.7721 186.666 67.3162V44.7492C186.666 42.7433 186.255 41.1932 185.435 40.0991C184.614 38.9593 183.52 38.3895 182.152 38.3895C180.693 38.3895 179.531 38.9593 178.665 40.0991C177.798 41.1932 177.365 42.7205 177.365 44.6808V67.3162C177.365 67.7721 177.137 68 176.681 68H171.553C171.097 68 170.869 67.7721 170.869 67.3162V44.7492C170.869 42.7433 170.458 41.1932 169.638 40.0991C168.817 38.9593 167.723 38.3895 166.355 38.3895C164.897 38.3895 163.734 38.9593 162.868 40.0991C162.002 41.1932 161.568 42.7205 161.568 44.6808V67.3162C161.568 67.7721 161.341 68 160.885 68H155.756C155.3 68 155.072 67.7721 155.072 67.3162V33.8761C155.072 33.4202 155.3 33.1922 155.756 33.1922H160.885C161.341 33.1922 161.568 33.4202 161.568 33.8761V35.5857C161.568 35.6769 161.591 35.7453 161.637 35.7908C161.728 35.8364 161.819 35.8136 161.91 35.7225C162.822 34.7195 163.871 33.9673 165.056 33.4658C166.241 32.9643 167.427 32.7135 168.612 32.7135C172.077 32.7135 174.562 34.2408 176.066 37.2953C176.112 37.3865 176.18 37.4321 176.271 37.4321C176.362 37.3865 176.431 37.2725 176.476 37.0902C177.388 35.5401 178.551 34.4232 179.964 33.7393C181.377 33.0555 182.836 32.7135 184.341 32.7135ZM203.64 27.7215C202.364 27.7215 201.315 27.3112 200.495 26.4905C199.674 25.6699 199.264 24.6214 199.264 23.3448C199.264 22.0683 199.674 21.0198 200.495 20.1992C201.315 19.3785 202.364 18.9682 203.64 18.9682C204.963 18.9682 206.011 19.3785 206.786 20.1992C207.607 20.9742 208.017 22.0227 208.017 23.3448C208.017 24.6214 207.607 25.6699 206.786 26.4905C205.966 27.3112 204.917 27.7215 203.64 27.7215ZM201.11 68C200.654 68 200.426 67.7721 200.426 67.3162V33.8761C200.426 33.4202 200.654 33.1922 201.11 33.1922H206.307C206.763 33.1922 206.991 33.4202 206.991 33.8761V67.3162C206.991 67.7721 206.763 68 206.307 68H201.11Z" fill="white"/>
<path d="M246.927 23.7803V38.2094L216.564 68.6406V54.2114L246.927 23.7803ZM258.005 34.038V47.031L246.653 58.3829H232.224L247.816 42.7912V23.7803L258.005 34.038ZM247.816 68.6406V58.3829L258.005 48.1936V68.6406H247.816Z" fill="#FFA000"/>
<path d="M273.067 68.6406H262.877V34.038L273.067 44.2273V68.6406ZM273.067 34.038V44.2273L262.877 34.038V23.7803L273.067 34.038Z" fill="#FFA000"/>
</svg>
