<svg width="280" height="90" viewBox="0 0 280 90" fill="none" xmlns="http://www.w3.org/2000/svg">
<rect width="280" height="90" fill="white"/>
<path d="M34.0803 29.1228C34.0803 29.5787 33.8524 29.8067 33.3965 29.8067H18.0783C17.8959 29.8067 17.8048 29.8979 17.8048 30.0802V44.9197C17.8048 45.1021 17.8959 45.1932 18.0783 45.1932H27.447C27.9029 45.1932 28.1308 45.4212 28.1308 45.8771V50.1853C28.1308 50.6412 27.9029 50.8692 27.447 50.8692H18.0783C17.8959 50.8692 17.8048 50.9603 17.8048 51.1427V71.3162C17.8048 71.7721 17.5768 72 17.1209 72H11.9237C11.4678 72 11.2398 71.7721 11.2398 71.3162V24.8146C11.2398 24.3587 11.4678 24.1308 11.9237 24.1308H33.3965C33.8524 24.1308 34.0803 24.3587 34.0803 24.8146V29.1228ZM42.2288 31.7215C40.9522 31.7215 39.9037 31.3112 39.0831 30.4905C38.2625 29.6699 37.8521 28.6214 37.8521 27.3448C37.8521 26.0683 38.2625 25.0198 39.0831 24.1992C39.9037 23.3785 40.9522 22.9682 42.2288 22.9682C43.5509 22.9682 44.5994 23.3785 45.3745 24.1992C46.1951 24.9742 46.6054 26.0227 46.6054 27.3448C46.6054 28.6214 46.1951 29.6699 45.3745 30.4905C44.5538 31.3112 43.5053 31.7215 42.2288 31.7215ZM39.6985 72C39.2426 72 39.0147 71.7721 39.0147 71.3162V37.8761C39.0147 37.4202 39.2426 37.1922 39.6985 37.1922H44.8958C45.3517 37.1922 45.5796 37.4202 45.5796 37.8761V71.3162C45.5796 71.7721 45.3517 72 44.8958 72H39.6985ZM66.9781 36.7135C69.8503 36.7135 72.0386 37.6937 73.543 39.6541C75.0931 41.5688 75.8681 44.3042 75.8681 47.8602V71.3162C75.8681 71.7721 75.6402 72 75.1843 72H69.987C69.5311 72 69.3032 71.7721 69.3032 71.3162V48.4073C69.3032 46.4925 68.8929 45.0109 68.0723 43.9623C67.2517 42.9137 66.1119 42.3895 64.653 42.3895C63.1486 42.3895 61.9632 42.9137 61.097 43.9623C60.2764 44.9653 59.8205 46.4014 59.7293 48.2705C59.7293 48.5441 59.7066 48.6808 59.661 48.6808V71.3162C59.661 71.7721 59.433 72 58.9771 72H53.7799C53.324 72 53.096 71.7721 53.096 71.3162V37.8761C53.096 37.4202 53.324 37.1922 53.7799 37.1922H58.9771C59.433 37.1922 59.661 37.4202 59.661 37.8761V39.7225C59.661 39.8136 59.7066 39.882 59.7977 39.9276C59.8889 39.9276 59.9801 39.8592 60.0713 39.7225C61.7125 37.7165 64.0148 36.7135 66.9781 36.7135ZM86.238 31.7215C84.9615 31.7215 83.9129 31.3112 83.0923 30.4905C82.2717 29.6699 81.8614 28.6214 81.8614 27.3448C81.8614 26.0683 82.2717 25.0198 83.0923 24.1992C83.9129 23.3785 84.9615 22.9682 86.238 22.9682C87.5601 22.9682 88.6087 23.3785 89.3837 24.1992C90.2043 24.9742 90.6146 26.0227 90.6146 27.3448C90.6146 28.6214 90.2043 29.6699 89.3837 30.4905C88.5631 31.3112 87.5145 31.7215 86.238 31.7215ZM83.7078 72C83.2519 72 83.0239 71.7721 83.0239 71.3162V37.8761C83.0239 37.4202 83.2519 37.1922 83.7078 37.1922H88.905C89.3609 37.1922 89.5888 37.4202 89.5888 37.8761V71.3162C89.5888 71.7721 89.3609 72 88.905 72H83.7078ZM112.834 37.8761C112.834 37.4202 113.062 37.1922 113.518 37.1922H118.715C119.171 37.1922 119.399 37.4202 119.399 37.8761V70.9742C119.399 75.7612 118.305 79.4539 116.116 82.0525C113.928 84.6967 110.167 86.0188 104.833 86.0188L102.986 85.9505C102.53 85.9049 102.303 85.6541 102.303 85.1982V80.8216C102.303 80.3657 102.553 80.1378 103.055 80.1378C106.793 80.2745 109.346 79.5223 110.714 77.8811C112.127 76.2854 112.834 73.778 112.834 70.3588V68.9227C112.834 68.8315 112.788 68.7859 112.697 68.7859C112.651 68.7403 112.583 68.7631 112.492 68.8543C110.942 70.9514 108.731 72 105.859 72C102.85 72 100.525 71.0426 98.8833 69.1278C97.2876 67.1675 96.4898 64.5233 96.4898 61.1952V47.5183C96.4898 44.1447 97.3104 41.5005 98.9517 39.5857C100.593 37.6253 102.895 36.6452 105.859 36.6452C108.822 36.6452 111.033 37.6937 112.492 39.7908C112.583 39.882 112.651 39.9048 112.697 39.8592C112.788 39.8136 112.834 39.7453 112.834 39.6541V37.8761ZM107.978 66.3241C109.437 66.3241 110.6 65.8226 111.466 64.8196C112.378 63.7711 112.834 62.4262 112.834 60.7849V47.9286C112.834 46.2874 112.378 44.9425 111.466 43.8939C110.6 42.8454 109.437 42.3211 107.978 42.3211C106.52 42.3211 105.334 42.8454 104.422 43.8939C103.511 44.9425 103.055 46.2874 103.055 47.9286V60.7849C103.055 62.4262 103.511 63.7711 104.422 64.8196C105.334 65.8226 106.52 66.3241 107.978 66.3241ZM137.237 36.6452C140.565 36.6452 143.278 37.6937 145.375 39.7908C147.517 41.888 148.589 44.6462 148.589 48.0654V71.3162C148.589 71.7721 148.361 72 147.905 72H142.708C142.252 72 142.024 71.7721 142.024 71.3162V69.8117C142.024 69.7205 141.978 69.6521 141.887 69.6065C141.841 69.5609 141.773 69.5837 141.682 69.6749C140.086 71.5897 137.738 72.5471 134.638 72.5471C132.04 72.5471 129.737 71.8176 127.731 70.3588C125.771 68.8543 124.791 66.2101 124.791 62.4262C124.791 58.4598 125.976 55.5649 128.347 53.7413C130.763 51.8721 133.909 50.9375 137.784 50.9375H141.75C141.933 50.9375 142.024 50.8464 142.024 50.664V48.6808C142.024 46.7661 141.568 45.2388 140.656 44.0991C139.744 42.9137 138.559 42.3211 137.1 42.3211C135.96 42.3211 135.003 42.7086 134.228 43.4836C133.453 44.2586 132.997 45.2616 132.86 46.4925C132.86 46.9484 132.632 47.1764 132.176 47.1764H126.637C126.181 47.1764 125.953 46.9484 125.953 46.4925C126.181 43.5748 127.344 41.2041 129.441 39.3805C131.538 37.5569 134.137 36.6452 137.237 36.6452ZM136.074 66.8028C137.67 66.8028 139.06 66.3013 140.246 65.2983C141.431 64.2953 142.024 62.8821 142.024 61.0585V56.4083C142.024 56.2259 141.933 56.1348 141.75 56.1348H137.579C135.755 56.1348 134.296 56.6363 133.202 57.6392C132.108 58.5966 131.561 60.0099 131.561 61.8791C131.561 63.5203 131.971 64.7512 132.792 65.5718C133.613 66.3925 134.707 66.8028 136.074 66.8028ZM184.341 36.7135C187.167 36.7135 189.333 37.7393 190.837 39.7908C192.387 41.7968 193.162 44.6234 193.162 48.2705V71.3162C193.162 71.7721 192.934 72 192.478 72H187.349C186.894 72 186.666 71.7721 186.666 71.3162V48.7492C186.666 46.7433 186.255 45.1932 185.435 44.0991C184.614 42.9593 183.52 42.3895 182.152 42.3895C180.693 42.3895 179.531 42.9593 178.665 44.0991C177.798 45.1932 177.365 46.7205 177.365 48.6808V71.3162C177.365 71.7721 177.137 72 176.681 72H171.553C171.097 72 170.869 71.7721 170.869 71.3162V48.7492C170.869 46.7433 170.458 45.1932 169.638 44.0991C168.817 42.9593 167.723 42.3895 166.355 42.3895C164.897 42.3895 163.734 42.9593 162.868 44.0991C162.002 45.1932 161.568 46.7205 161.568 48.6808V71.3162C161.568 71.7721 161.341 72 160.885 72H155.756C155.3 72 155.072 71.7721 155.072 71.3162V37.8761C155.072 37.4202 155.3 37.1922 155.756 37.1922H160.885C161.341 37.1922 161.568 37.4202 161.568 37.8761V39.5857C161.568 39.6769 161.591 39.7453 161.637 39.7908C161.728 39.8364 161.819 39.8136 161.91 39.7225C162.822 38.7195 163.871 37.9673 165.056 37.4658C166.241 36.9643 167.427 36.7135 168.612 36.7135C172.077 36.7135 174.562 38.2408 176.066 41.2953C176.112 41.3865 176.18 41.4321 176.271 41.4321C176.362 41.3865 176.431 41.2725 176.476 41.0902C177.388 39.5401 178.551 38.4232 179.964 37.7393C181.377 37.0555 182.836 36.7135 184.341 36.7135ZM203.64 31.7215C202.364 31.7215 201.315 31.3112 200.495 30.4905C199.674 29.6699 199.264 28.6214 199.264 27.3448C199.264 26.0683 199.674 25.0198 200.495 24.1992C201.315 23.3785 202.364 22.9682 203.64 22.9682C204.963 22.9682 206.011 23.3785 206.786 24.1992C207.607 24.9742 208.017 26.0227 208.017 27.3448C208.017 28.6214 207.607 29.6699 206.786 30.4905C205.966 31.3112 204.917 31.7215 203.64 31.7215ZM201.11 72C200.654 72 200.426 71.7721 200.426 71.3162V37.8761C200.426 37.4202 200.654 37.1922 201.11 37.1922H206.307C206.763 37.1922 206.991 37.4202 206.991 37.8761V71.3162C206.991 71.7721 206.763 72 206.307 72H201.11Z" fill="#0A4E69"/>
<path d="M246.927 27.7803V42.2094L216.564 72.6406V58.2114L246.927 27.7803ZM258.005 38.038V51.031L246.653 62.3829H232.224L247.816 46.7912V27.7803L258.005 38.038ZM247.816 72.6406V62.3829L258.005 52.1936V72.6406H247.816Z" fill="#FFA000"/>
<path d="M273.067 72.6406H262.877V38.038L273.067 48.2273V72.6406ZM273.067 38.038V48.2273L262.877 38.038V27.7803L273.067 38.038Z" fill="#FFA000"/>
</svg>
