<svg width="137" height="44" viewBox="0 0 137 44" fill="none" xmlns="http://www.w3.org/2000/svg">
<g clip-path="url(#clip0_2013_3231)">
<path d="M13.86 14.044C13.86 14.2773 13.7433 14.394 13.51 14.394H5.67C5.57667 14.394 5.53 14.4407 5.53 14.534V22.129C5.53 22.2223 5.57667 22.269 5.67 22.269H10.465C10.6983 22.269 10.815 22.3857 10.815 22.619V24.824C10.815 25.0573 10.6983 25.174 10.465 25.174H5.67C5.57667 25.174 5.53 25.2207 5.53 25.314V35.639C5.53 35.8723 5.41333 35.989 5.18 35.989H2.52C2.28667 35.989 2.17 35.8723 2.17 35.639V11.839C2.17 11.6057 2.28667 11.489 2.52 11.489H13.51C13.7433 11.489 13.86 11.6057 13.86 11.839V14.044ZM18.0305 15.374C17.3771 15.374 16.8405 15.164 16.4205 14.744C16.0005 14.324 15.7905 13.7873 15.7905 13.134C15.7905 12.4807 16.0005 11.944 16.4205 11.524C16.8405 11.104 17.3771 10.894 18.0305 10.894C18.7071 10.894 19.2438 11.104 19.6405 11.524C20.0605 11.9207 20.2705 12.4573 20.2705 13.134C20.2705 13.7873 20.0605 14.324 19.6405 14.744C19.2205 15.164 18.6838 15.374 18.0305 15.374ZM16.7355 35.989C16.5021 35.989 16.3855 35.8723 16.3855 35.639V18.524C16.3855 18.2907 16.5021 18.174 16.7355 18.174H19.3955C19.6288 18.174 19.7455 18.2907 19.7455 18.524V35.639C19.7455 35.8723 19.6288 35.989 19.3955 35.989H16.7355ZM30.6975 17.929C32.1675 17.929 33.2875 18.4307 34.0575 19.434C34.8508 20.414 35.2475 21.814 35.2475 23.634V35.639C35.2475 35.8723 35.1308 35.989 34.8975 35.989H32.2375C32.0041 35.989 31.8875 35.8723 31.8875 35.639V23.914C31.8875 22.934 31.6775 22.1757 31.2575 21.639C30.8375 21.1023 30.2541 20.834 29.5075 20.834C28.7375 20.834 28.1308 21.1023 27.6875 21.639C27.2675 22.1523 27.0341 22.8873 26.9875 23.844C26.9875 23.984 26.9758 24.054 26.9525 24.054V35.639C26.9525 35.8723 26.8358 35.989 26.6025 35.989H23.9425C23.7091 35.989 23.5925 35.8723 23.5925 35.639V18.524C23.5925 18.2907 23.7091 18.174 23.9425 18.174H26.6025C26.8358 18.174 26.9525 18.2907 26.9525 18.524V19.469C26.9525 19.5157 26.9758 19.5507 27.0225 19.574C27.0691 19.574 27.1158 19.539 27.1625 19.469C28.0025 18.4423 29.1808 17.929 30.6975 17.929ZM40.5549 15.374C39.9015 15.374 39.3649 15.164 38.9449 14.744C38.5249 14.324 38.3149 13.7873 38.3149 13.134C38.3149 12.4807 38.5249 11.944 38.9449 11.524C39.3649 11.104 39.9015 10.894 40.5549 10.894C41.2315 10.894 41.7682 11.104 42.1649 11.524C42.5849 11.9207 42.7949 12.4573 42.7949 13.134C42.7949 13.7873 42.5849 14.324 42.1649 14.744C41.7449 15.164 41.2082 15.374 40.5549 15.374ZM39.2599 35.989C39.0265 35.989 38.9099 35.8723 38.9099 35.639V18.524C38.9099 18.2907 39.0265 18.174 39.2599 18.174H41.9199C42.1532 18.174 42.2699 18.2907 42.2699 18.524V35.639C42.2699 35.8723 42.1532 35.989 41.9199 35.989H39.2599ZM54.1669 18.524C54.1669 18.2907 54.2835 18.174 54.5169 18.174H57.1769C57.4102 18.174 57.5269 18.2907 57.5269 18.524V35.464C57.5269 37.914 56.9669 39.804 55.8469 41.134C54.7269 42.4873 52.8019 43.164 50.0719 43.164L49.1269 43.129C48.8935 43.1057 48.7769 42.9773 48.7769 42.744V40.504C48.7769 40.2707 48.9052 40.154 49.1619 40.154C51.0752 40.224 52.3819 39.839 53.0819 38.999C53.8052 38.1823 54.1669 36.899 54.1669 35.149V34.414C54.1669 34.3673 54.1435 34.344 54.0969 34.344C54.0735 34.3207 54.0385 34.3323 53.9919 34.379C53.1985 35.4523 52.0669 35.989 50.5969 35.989C49.0569 35.989 47.8669 35.499 47.0269 34.519C46.2102 33.5157 45.8019 32.1623 45.8019 30.459V23.459C45.8019 21.7323 46.2219 20.379 47.0619 19.399C47.9019 18.3957 49.0802 17.894 50.5969 17.894C52.1135 17.894 53.2452 18.4307 53.9919 19.504C54.0385 19.5507 54.0735 19.5623 54.0969 19.539C54.1435 19.5157 54.1669 19.4807 54.1669 19.434V18.524ZM51.6819 33.084C52.4285 33.084 53.0235 32.8273 53.4669 32.314C53.9335 31.7773 54.1669 31.089 54.1669 30.249V23.669C54.1669 22.829 53.9335 22.1407 53.4669 21.604C53.0235 21.0673 52.4285 20.799 51.6819 20.799C50.9352 20.799 50.3285 21.0673 49.8619 21.604C49.3952 22.1407 49.1619 22.829 49.1619 23.669V30.249C49.1619 31.089 49.3952 31.7773 49.8619 32.314C50.3285 32.8273 50.9352 33.084 51.6819 33.084ZM66.6567 17.894C68.36 17.894 69.7483 18.4307 70.8217 19.504C71.9183 20.5773 72.4667 21.989 72.4667 23.739V35.639C72.4667 35.8723 72.35 35.989 72.1167 35.989H69.4567C69.2233 35.989 69.1067 35.8723 69.1067 35.639V34.869C69.1067 34.8223 69.0833 34.7873 69.0367 34.764C69.0133 34.7407 68.9783 34.7523 68.9317 34.799C68.115 35.779 66.9133 36.269 65.3267 36.269C63.9967 36.269 62.8183 35.8957 61.7917 35.149C60.7883 34.379 60.2867 33.0257 60.2867 31.089C60.2867 29.059 60.8933 27.5773 62.1067 26.644C63.3433 25.6873 64.9533 25.209 66.9367 25.209H68.9667C69.06 25.209 69.1067 25.1623 69.1067 25.069V24.054C69.1067 23.074 68.8733 22.2923 68.4067 21.709C67.94 21.1023 67.3333 20.799 66.5867 20.799C66.0033 20.799 65.5133 20.9973 65.1167 21.394C64.72 21.7907 64.4867 22.304 64.4167 22.934C64.4167 23.1673 64.3 23.284 64.0667 23.284H61.2317C60.9983 23.284 60.8817 23.1673 60.8817 22.934C60.9983 21.4407 61.5933 20.2273 62.6667 19.294C63.74 18.3607 65.07 17.894 66.6567 17.894ZM66.0617 33.329C66.8783 33.329 67.59 33.0723 68.1967 32.559C68.8033 32.0457 69.1067 31.3223 69.1067 30.389V28.009C69.1067 27.9157 69.06 27.869 68.9667 27.869H66.8317C65.8983 27.869 65.1517 28.1257 64.5917 28.639C64.0317 29.129 63.7517 29.8523 63.7517 30.809C63.7517 31.649 63.9617 32.279 64.3817 32.699C64.8017 33.119 65.3617 33.329 66.0617 33.329ZM90.7648 17.929C92.2115 17.929 93.3198 18.454 94.0898 19.504C94.8832 20.5307 95.2798 21.9773 95.2798 23.844V35.639C95.2798 35.8723 95.1632 35.989 94.9298 35.989H92.3048C92.0715 35.989 91.9548 35.8723 91.9548 35.639V24.089C91.9548 23.0623 91.7448 22.269 91.3248 21.709C90.9048 21.1257 90.3448 20.834 89.6448 20.834C88.8982 20.834 88.3032 21.1257 87.8598 21.709C87.4165 22.269 87.1948 23.0507 87.1948 24.054V35.639C87.1948 35.8723 87.0782 35.989 86.8448 35.989H84.2198C83.9865 35.989 83.8698 35.8723 83.8698 35.639V24.089C83.8698 23.0623 83.6598 22.269 83.2398 21.709C82.8198 21.1257 82.2598 20.834 81.5598 20.834C80.8132 20.834 80.2182 21.1257 79.7748 21.709C79.3315 22.269 79.1098 23.0507 79.1098 24.054V35.639C79.1098 35.8723 78.9932 35.989 78.7598 35.989H76.1348C75.9015 35.989 75.7848 35.8723 75.7848 35.639V18.524C75.7848 18.2907 75.9015 18.174 76.1348 18.174H78.7598C78.9932 18.174 79.1098 18.2907 79.1098 18.524V19.399C79.1098 19.4457 79.1215 19.4807 79.1448 19.504C79.1915 19.5273 79.2382 19.5157 79.2848 19.469C79.7515 18.9557 80.2882 18.5707 80.8948 18.314C81.5015 18.0573 82.1082 17.929 82.7148 17.929C84.4882 17.929 85.7598 18.7107 86.5298 20.274C86.5532 20.3207 86.5882 20.344 86.6348 20.344C86.6815 20.3207 86.7165 20.2623 86.7398 20.169C87.2065 19.3757 87.8015 18.804 88.5248 18.454C89.2482 18.104 89.9948 17.929 90.7648 17.929ZM100.643 15.374C99.9894 15.374 99.4528 15.164 99.0328 14.744C98.6128 14.324 98.4028 13.7873 98.4028 13.134C98.4028 12.4807 98.6128 11.944 99.0328 11.524C99.4528 11.104 99.9894 10.894 100.643 10.894C101.319 10.894 101.856 11.104 102.253 11.524C102.673 11.9207 102.883 12.4573 102.883 13.134C102.883 13.7873 102.673 14.324 102.253 14.744C101.833 15.164 101.296 15.374 100.643 15.374ZM99.3478 35.989C99.1144 35.989 98.9978 35.8723 98.9978 35.639V18.524C98.9978 18.2907 99.1144 18.174 99.3478 18.174H102.008C102.241 18.174 102.358 18.2907 102.358 18.524V35.639C102.358 35.8723 102.241 35.989 102.008 35.989H99.3478Z" fill="white"/>
<path d="M122.431 13.687V21.0807L107.385 36.1618V28.768L122.431 13.687ZM128.62 18.9432V25.0887L122.803 30.9056H115.409L123.397 22.9161V13.687L128.62 18.9432ZM123.399 36.1618V31.62L128.62 26.4V36.1618H123.399Z" fill="#FFA000"/>
<path d="M136.338 36.1618H131.117V18.4308L136.338 23.652V36.1618ZM136.338 18.4308V23.652L131.117 18.4308V13.1746L136.338 18.4308Z" fill="#FFA000"/>
</g>
<defs>
<clipPath id="clip0_2013_3231">
<rect width="137" height="43.011" fill="white" transform="translate(0 0.989014)"/>
</clipPath>
</defs>
</svg>
